<svg width="25" height="24" viewBox="0 0 25 24" fill="none" xmlns="http://www.w3.org/2000/svg">
<path d="M13.61 5.72L13.04 8.61C12.92 9.2 13.08 9.81 13.46 10.27C13.84 10.73 14.4 11 15 11H20.5V12.08L17.93 18H9.84C9.66 18 9.5 17.84 9.5 17.66V9.82L13.61 5.72ZM14.5 2L8.09 8.41C7.71 8.79 7.5 9.3 7.5 9.83V17.66C7.5 18.95 8.55 20 9.84 20H17.94C18.65 20 19.3 19.63 19.66 19.03L22.33 12.88C22.44 12.63 22.5 12.36 22.5 12.08V11C22.5 9.9 21.6 9 20.5 9H15L15.92 4.35C15.97 4.13 15.94 3.89 15.84 3.69C15.61 3.24 15.32 2.83 14.96 2.47L14.5 2ZM4.5 9H2.5V20H4.5C5.05 20 5.5 19.55 5.5 19V10C5.5 9.45 5.05 9 4.5 9Z" fill="#FFD600"/>
</svg>
